<?xml version="1.0" encoding="UTF-8"?>
<svg id="Layer_1" data-name="Layer 1" xmlns="http://www.w3.org/2000/svg" width="2426.5" height="311.9" version="1.1" viewBox="0 0 2426.5 311.9">
  <defs>
    <style>
      .cls-1 {
        fill: #ca3132;
      }

      .cls-1, .cls-2 {
        fill-rule: evenodd;
        stroke-width: 0px;
      }

      .cls-2 {
        fill: #000;
      }
    </style>
  </defs>
  <path class="cls-2" d="M1529.7,70.4l-18.5,66.7h79.4c0,0,2-6.6,2-6.6,15.7-57.9-28.2-69.7-45.8-69.7h-62.2c-30.1,0-67.8,3.6-80.9,50.3-11.1,40.8-17.7,58.9-2.3,79.2,9.4,12.4,32.1,15.8,63.5,22.3,23.6,5.3,19.7,19.7,15.7,34.9-3.3,11.2-10.2,17.8-21.3,17.8s-15.7-4.9-12.4-16.4l6.4-24.9h-80.8c0,0-6.6,24.3-6.6,24.3-9.8,32.2,9.8,63.8,53,63.8h44.5c57.6,0,86.1-15,102.5-70,5.9-19.7,12.1-42.7,2.9-58.8-12.4-22-64.6-28.9-81.9-33.5-11.1-3-8.1-14.4-5.7-25.6,5-18.4,9.4-23,15.8-28.7l26.4-26.1c2.5-1.8,6.7-1.6,6.1,1.3h0ZM288.4,152.9c24.7,8.5,58.1,28.9,42.3,82.7-17,57.9-53.7,76.4-114,76.4H0L202.4,121.2l-36.7,134.1h19.6c14.4,0,23.6-9.2,27.5-21L278.4.2c47.2,0,99.4,5.4,89.1,73.6-8.7,57.3-46.7,70.7-78.5,76.7-2,.3-2,2.2-.5,2.4h0Z"/>
  <path class="cls-1" d="M274.9,0L55.5,205.2,112.9,0h162.1Z"/>
  <path class="cls-2" d="M569.7,311.9l69.4-251.2h81.2l-69.4,251.2h-81.2ZM1649.8,135.8l31.4-25h-73.3l13.8-50h167l-14.4,50h-43.9l-55.7,201.2h-81.2l40.9-147.9c3-11.8,6.7-21.3,15.5-28.2ZM2141.9,70.4l-66.8,241.5h81.2l52.4-190.7c10.5-40.8-9.2-60.5-38-60.5h-138.8l-69.4,251.2h81.2l51.6-188.1c5.7-18.8,10-23.6,15.8-29l25.2-26c2-1.2,6.6-2,5.6,1.5h0ZM1275.9,178.1l16.5-9.7c3.9-2.8,15.3-8.7,30.4-9h37.3l-13.8,48.7h-83.2l-10.5,36.8c-2.6,9.9,4.6,17.1,12.4,17.1h66.8l-13.8,50h-94.3c-43.2,0-60.9-37.5-53-63.8l37.3-137.4c11.8-46,51.1-50,81.2-50h98.2l-13.8,50h-67.4c-12.5,0-19,8.5-20.3,13.8l-14.3,49.9c-1.1,2.7-.8,6.2,4.1,3.6h0ZM1107.7,70.4l-19.7,70.8h81.4c0-.1,3.8-14,3.8-14,15.7-57.9-31.4-66.4-49.1-66.4h-61.6c-30.1,0-69.4,4-81.2,50l-37.3,137.4c-9.8,32.2,9.8,63.8,53,63.8h125.1l37.7-136h-81.2l-23.9,86.1h-17c-7.2,0-15.1-7.3-11.1-17.8l32.6-120.4c2.4-7.5,6.5-21.5,15.8-28.6l26.5-26c1.4-1.6,7.2-2.4,6.3,1.1h0ZM519.5,70.4l-66.9,241.5h81.9s12.2-46.7,21.6-78.2c8.5-28.6-23.2-44.7-27.2-44.7s-3.9-5.9,0-5.9c22.3-.7,44.5-4.6,58.6-56.5,16.6-61.1-37.1-65.8-57-65.8h-123.1l-70.1,251.2h81.9l51.9-188c4-14.8,10-24.4,16.1-28.8l26.6-25.9c1.4-1.6,6.6-2,5.8,1.2ZM2314.8,178.1l16.5-9.7c3.9-2.8,15.3-8.7,30.4-9h37.3l-13.8,48.7h-83.2l-10.5,36.8c-2.6,9.9,4.6,17.1,12.4,17.1h66.8l-13.8,50h-94.3c-43.2,0-60.9-37.5-53.1-63.8l37.3-137.4c11.8-46,51.1-50,81.2-50h98.2l-13.8,50h-67.5c-12.4,0-19,8.5-20.3,13.8l-14.3,49.9c-1.1,2.7-.8,6.2,4.1,3.6h0ZM882,60.8h-118.5l-70.1,251.2h115.3c57.6,0,86.4-19.7,96.3-56.5l34.7-124.9c15.7-57.9-39.9-69.7-57.6-69.7ZM875.5,70.3l-47.1,167.9c-8.5,27.6-29.5,23.7-39.3,23.7l37.8-138.1c4.4-14.2,9.6-23.6,16-28.8l26.3-25.8c2.1-1.9,7.9-2.1,6.3,1.1h0ZM1920.2,60.8h-50.4c-30.1,0-69.4,4-81.2,50l-37.3,137.4c-9.8,32.2,9.8,63.8,53,63.8h42.6c57.6,0,86.4-19.7,96.3-56.5l34.7-124.9c15.7-57.9-39.9-69.7-57.6-69.7h0ZM1913,70.2l-49.1,177.9c-3.3,11.2-12.4,17.1-19.7,17.1s-15.7-5.2-11.8-15.8l34-125.6c5.5-18.1,10.2-24,15.7-29l25.2-26c1.8-1.5,6.3-1.2,5.7,1.4h0Z"/>
</svg>